<svg width="353" height="232" viewBox="0 0 353 232" fill="none" xmlns="http://www.w3.org/2000/svg">
<mask id="mask0_5014_157334" style="mask-type:luminance" maskUnits="userSpaceOnUse" x="11" y="11" width="331" height="209">
<path d="M24.2793 11.5557H328.719C335.734 11.5557 341.43 17.2518 341.43 24.2667V206.857C341.43 213.872 335.734 219.568 328.719 219.568H24.2793C17.2645 219.568 11.5547 213.872 11.5547 206.844V24.2803C11.5547 17.2654 17.2509 11.5693 24.2657 11.5693L24.2793 11.5557Z" fill="white"/>
</mask>
<g mask="url(#mask0_5014_157334)">
<path d="M353 0H0V231.137H353V0Z" fill="#636466"/>
<path d="M52.5586 208.774C52.5586 208.774 52.6402 208.802 52.6945 208.815C52.6538 208.815 52.613 208.788 52.5586 208.774Z" fill="#3759A6"/>
<path d="M52.8301 208.842C52.8301 208.842 52.9116 208.869 52.9524 208.883C52.9116 208.883 52.8709 208.855 52.8301 208.842Z" fill="#3759A6"/>
<path d="M51.4023 208.435C51.4839 208.462 51.5655 208.489 51.6606 208.516C51.5791 208.489 51.4975 208.462 51.4023 208.435Z" fill="#3759A6"/>
<path d="M51.7422 208.529C51.7422 208.529 51.8509 208.556 51.9053 208.584C51.8509 208.57 51.7966 208.556 51.7422 208.529Z" fill="#3759A6"/>
<path d="M52.0273 208.625C52.0273 208.625 52.1225 208.652 52.1769 208.666C52.1225 208.652 52.0817 208.639 52.0273 208.625Z" fill="#3759A6"/>
<path d="M52.2871 208.693C52.2871 208.693 52.3823 208.721 52.4231 208.734C52.3687 208.734 52.3279 208.707 52.2871 208.693Z" fill="#3759A6"/>
<path d="M53.1152 208.924C53.1152 208.924 53.1968 208.951 53.2376 208.951C53.1968 208.951 53.156 208.937 53.1152 208.924Z" fill="#3759A6"/>
<path d="M53.3867 208.991C53.3867 208.991 53.4547 209.005 53.4955 209.018C53.4547 209.018 53.4275 209.005 53.3867 208.991Z" fill="#3759A6"/>
<path d="M53.6719 209.073C53.6719 209.073 53.7263 209.087 53.767 209.1C53.7398 209.1 53.7127 209.087 53.6719 209.073Z" fill="#3759A6"/>
<path d="M302.918 23.0165C302.918 23.0165 302.931 23.0165 302.945 23.0165C302.918 23.0165 302.891 23.0165 302.891 23.0029C302.891 23.0029 302.891 23.0029 302.918 23.0029V23.0165Z" fill="#2DB66F"/>
<path d="M217.882 87.7135C217.882 87.7135 217.923 87.7135 217.95 87.7135C218.032 87.7135 218.127 87.6999 218.222 87.6863C218.549 87.6591 218.875 87.6183 219.228 87.5911C219.269 87.5911 219.31 87.5911 219.351 87.5911C219.976 87.5368 220.628 87.4688 221.335 87.4008C221.485 87.4008 221.621 87.3736 221.77 87.36C227.086 86.8706 232.116 86.2453 236.888 85.5247H236.956L236.983 85.5111C238.451 80.7122 239.838 76.5794 241.768 72.569C254.343 46.1681 270.983 34.1232 283.205 29.868C291.674 26.8636 307.866 25.0827 313.018 32.1519C310.965 28.3182 307.24 25.2594 303.842 23.4785C303.543 23.329 303.243 23.193 302.944 23.0571L302.876 23.0299C290.22 20.2158 275.796 21.9559 266.388 24.8924C256.546 28.1959 245.194 33.8785 233.625 43.2316C232.782 43.8978 231.98 44.5911 231.232 45.2844C231.11 45.3388 231.028 45.4476 230.933 45.5427C230.186 46.1817 229.424 46.8478 228.731 47.5276C228.704 47.5547 228.663 47.5683 228.622 47.6227C227.113 49.0366 225.645 50.4912 224.299 51.9594C224.177 52.0274 224.095 52.1226 224.041 52.2041C223.429 52.8567 222.831 53.5092 222.26 54.1618C222.178 54.2297 222.097 54.3249 222.002 54.4065C220.724 55.8747 219.459 57.3293 218.304 58.7976C218.236 58.8655 218.181 58.9743 218.073 59.0559C217.583 59.6812 217.121 60.293 216.632 60.9319C216.536 61.0543 216.414 61.2174 216.305 61.3398C215.843 62.0195 215.34 62.6992 214.851 63.3518C214.851 63.4198 214.824 63.4469 214.783 63.4605C214.266 64.1947 213.777 64.9152 213.26 65.6493C213.192 65.7445 213.138 65.8532 213.029 65.9484C212.648 66.5873 212.268 67.1583 211.887 67.7565C211.765 67.9468 211.656 68.1235 211.534 68.3138C211.153 68.8576 210.84 69.4286 210.487 69.9724C210.419 70.1355 210.297 70.2715 210.215 70.4346C209.794 71.1144 209.372 71.8485 208.991 72.501C208.951 72.5826 208.883 72.6913 208.828 72.7865C208.502 73.3847 208.176 73.9692 207.849 74.5674C207.727 74.7849 207.632 75.0024 207.496 75.2064C207.265 75.6958 206.966 76.1716 206.735 76.661C206.64 76.8785 206.531 77.0552 206.436 77.2456C206.109 77.9253 205.756 78.5643 205.416 79.2304C204.573 80.9025 203.581 83.0369 202.534 85.3888C202.017 86.6939 201.474 87.9854 200.943 89.2633C208.203 88.7331 209.291 88.57 217.937 87.7407L217.882 87.7135Z" fill="#27B67C"/>
<path d="M325.2 38.1194C323.854 35.7267 322.222 33.6332 320.441 31.7843C316.05 27.5155 310.341 24.8102 304.101 23.2876C304.101 23.2876 304.101 23.2876 304.073 23.2876C304.073 23.2876 304.046 23.2876 304.033 23.2876C303.774 23.2332 303.353 23.1245 303.081 23.0701C303.013 23.0565 302.959 23.0429 302.918 23.0293H302.891L302.959 23.0565C303.258 23.1924 303.557 23.3284 303.856 23.4779C308.872 26.1017 314.596 31.4988 314.609 38.0786C314.569 38.9351 314.433 39.8731 314.215 40.8519C313.454 44.0603 312.026 47.3638 309.96 50.6401C307.268 54.8409 303.475 59.0009 298.432 62.889C287.066 71.8343 269.502 79.5561 244.692 84.1919C242.163 84.6677 239.648 85.0891 236.997 85.5105C236.997 85.5105 236.997 85.5105 236.97 85.5241H236.902C232.13 86.2447 227.1 86.8836 221.785 87.3594C209.427 88.515 209.128 88.6509 200.876 89.2491C200.876 89.2219 200.876 89.2083 200.903 89.1947C200.835 89.1947 200.808 89.1947 200.713 89.1947C199.666 89.2627 198.429 89.385 197.015 89.4666C185.813 90.2687 143.887 87.9712 132.236 87.9712C116.562 87.9712 99.0925 89.9424 82.7789 95.1492C64.2629 100.954 47.1472 110.919 35.7548 126.702C30.6024 133.785 26.1842 143.234 24.512 151.989C22.7991 161.043 23.9818 170.151 27.0814 178.77C27.4485 179.763 27.8699 180.741 28.3321 181.666C31.9075 189.904 38.4466 199.706 50.5595 208.094L51.1984 208.352C51.2664 208.379 51.348 208.407 51.4295 208.42C51.5111 208.447 51.5927 208.475 51.6878 208.502C51.715 208.502 51.7422 208.515 51.7694 208.529C51.8238 208.543 51.8781 208.556 51.9325 208.583C51.9733 208.583 52.0141 208.611 52.0413 208.611C52.0957 208.611 52.1364 208.638 52.1908 208.651C52.2316 208.651 52.2724 208.679 52.3132 208.692C52.3676 208.692 52.4083 208.719 52.4491 208.733C52.4899 208.733 52.5307 208.76 52.5851 208.774C52.6259 208.774 52.6666 208.801 52.721 208.814C52.7754 208.814 52.8162 208.842 52.8706 208.855C52.9113 208.855 52.9521 208.882 52.9929 208.896C53.0473 208.896 53.0881 208.923 53.1425 208.937C53.1832 208.937 53.224 208.964 53.2648 208.964C53.3192 208.978 53.3736 208.991 53.4279 209.005C53.4687 209.005 53.4959 209.018 53.5367 209.032C53.5911 209.046 53.659 209.059 53.7134 209.073C53.7406 209.073 53.7678 209.086 53.8086 209.1C53.8766 209.114 53.9445 209.127 53.9989 209.154C54.0125 209.154 54.0397 209.154 54.0533 209.154C54.298 209.209 54.5563 209.277 54.8146 209.331C55.1001 209.399 55.3992 209.467 55.7118 209.521C55.807 209.535 55.9022 209.562 55.9973 209.576C55.9973 209.576 55.9973 209.576 56.0245 209.576C56.1197 209.589 56.2149 209.617 56.31 209.63C56.31 209.63 56.3236 209.63 56.3372 209.63C56.4324 209.644 56.5275 209.671 56.6227 209.685C56.7179 209.698 56.8266 209.725 56.9218 209.739C57.0849 209.766 57.248 209.793 57.4112 209.82C57.4656 209.82 57.5335 209.848 57.6015 209.848C57.7103 209.861 57.819 209.888 57.9142 209.902C57.9822 209.902 58.0637 209.929 58.1317 209.943C58.2269 209.956 58.322 209.97 58.4308 209.997C58.5124 209.997 58.5803 210.024 58.6619 210.038C58.7571 210.052 58.8522 210.065 58.961 210.079C59.0425 210.079 59.1241 210.106 59.1921 210.12C59.2873 210.12 59.396 210.147 59.4912 210.16C59.5727 210.16 59.6543 210.174 59.7223 210.188C59.831 210.188 59.9262 210.215 60.035 210.228C60.1165 210.228 60.1845 210.242 60.2661 210.256C60.3748 210.269 60.4836 210.283 60.5923 210.296C60.6603 210.296 60.7419 210.31 60.8099 210.324C60.9866 210.337 61.1633 210.364 61.3401 210.378C61.3401 210.378 61.3536 210.378 61.3672 210.378C61.544 210.391 61.7207 210.419 61.8838 210.432C62.0742 210.446 62.2645 210.473 62.4548 210.487C62.4548 210.487 62.4548 210.487 62.4684 210.487C62.6044 210.487 62.7539 210.514 62.8898 210.527C62.9306 210.527 62.9578 210.527 62.9986 210.527C62.9986 210.527 63.0122 210.527 63.0258 210.527C63.1482 210.527 63.2569 210.541 63.3793 210.555C72.311 211.397 80.4814 210.432 87.102 209.073C87.3603 209.018 87.605 208.978 87.8633 208.923C88.108 208.869 88.3527 208.828 88.5974 208.774C88.5974 208.774 88.5974 208.774 88.6246 208.774C87.3603 209.005 84.7909 209.236 82.2895 209.317C81.569 209.345 80.8484 209.358 80.1551 209.358C79.4754 209.358 78.85 209.345 78.2926 209.304C66.1798 208.692 56.9082 203.037 51.3615 194.146C49.3767 190.693 47.7861 186.777 46.7665 182.373C46.7665 182.373 46.7529 182.373 46.7529 182.359C46.617 181.734 46.5218 181.108 46.3995 180.483C46.3315 180.293 46.3179 180.089 46.2771 179.871C46.1684 179.3 46.0732 178.716 45.978 178.145C45.9509 177.968 45.9373 177.832 45.9237 177.642C45.6518 175.48 45.475 173.21 45.475 170.817C45.5022 160.58 48.697 148.345 59.0426 135.797C70.7476 121.632 85.7561 112.333 101.322 106.474C118.995 99.8258 137.375 97.5962 152.397 97.6642C152.438 97.6642 152.465 97.6914 152.547 97.6914C153.539 97.6914 154.545 97.6914 155.565 97.7186C158.447 97.7866 161.193 97.9361 163.763 98.1672C171.335 98.8469 178.023 99.7986 184.1 100.845C186.642 101.267 189.171 101.77 191.7 102.232C192.76 102.436 193.82 102.64 194.894 102.844C205.58 104.897 216.632 106.963 229.724 107.765C233.354 107.996 237.147 108.119 241.13 108.119H241.347C285.177 108.119 325.879 88.2839 328.53 54.4738C328.639 53.4135 328.68 52.3123 328.693 51.1975V50.8984C328.354 45.8956 327.13 41.6676 325.227 38.133L325.2 38.1194Z" fill="#F7941D"/>
<path d="M194.855 102.845C188.819 116.195 155.906 186.167 100.276 205.553C96.4834 206.871 92.5953 207.959 88.5984 208.775C88.5984 208.775 88.5984 208.775 88.5713 208.775C88.3265 208.829 88.0818 208.87 87.8371 208.924C87.5788 208.978 87.3341 209.019 87.0758 209.074C80.4552 210.433 72.2848 211.398 63.3531 210.555C63.2307 210.555 63.122 210.542 62.9996 210.528C62.9996 210.528 62.986 210.528 62.9724 210.528C62.9316 210.528 62.9045 210.528 62.8637 210.528C62.7277 210.528 62.5782 210.501 62.4422 210.487C62.4422 210.487 62.4015 210.487 62.3743 210.487C62.2247 210.487 62.0752 210.46 61.9256 210.447C61.9256 210.447 61.8984 210.447 61.8849 210.447C61.7081 210.433 61.5314 210.406 61.3683 210.392C61.3683 210.392 61.3547 210.392 61.3411 210.392C59.7641 210.229 58.2823 210.012 56.9092 209.767C56.814 209.753 56.7053 209.726 56.6101 209.713C56.5149 209.699 56.4198 209.672 56.3246 209.658C56.3246 209.658 56.3246 209.658 56.2974 209.658C56.2023 209.645 56.1071 209.617 56.0119 209.604C56.0119 209.604 55.9983 209.604 55.9848 209.604C55.8896 209.59 55.7944 209.563 55.6993 209.549C55.1283 209.427 54.5709 209.305 54.0407 209.169C54.0271 209.169 53.9999 209.169 53.9863 209.169C53.9184 209.155 53.8504 209.142 53.796 209.114C53.7688 209.114 53.7416 209.101 53.7008 209.087C53.6465 209.074 53.5785 209.06 53.5241 209.046C53.4833 209.046 53.4561 209.033 53.4154 209.019C53.361 209.019 53.3066 208.992 53.2522 208.978C53.2114 208.978 53.1707 208.965 53.1299 208.951C53.0755 208.951 53.0347 208.924 52.9803 208.91C52.9395 208.91 52.8988 208.883 52.858 208.87C52.8036 208.87 52.7628 208.843 52.7084 208.829C52.6676 208.829 52.6269 208.802 52.5725 208.788C52.5317 208.788 52.4909 208.761 52.4365 208.747C52.3822 208.747 52.3414 208.72 52.3006 208.707C52.2598 208.707 52.219 208.679 52.1782 208.666C52.1239 208.652 52.0831 208.639 52.0287 208.625C51.9879 208.625 51.9471 208.598 51.9199 208.598C51.8656 208.584 51.8112 208.571 51.7568 208.543C51.7296 208.543 51.7024 208.53 51.6752 208.516C51.5937 208.489 51.5121 208.462 51.4169 208.435C51.3354 208.408 51.2674 208.394 51.1858 208.367L50.5469 208.108C50.5469 208.108 50.8052 208.326 51.2946 208.707C55.0603 211.575 72.9102 223.905 102.859 224.218C102.914 224.218 102.968 224.218 103.036 224.218C103.362 224.218 103.689 224.218 104.028 224.218C118.819 224.218 139.715 219.242 161.684 205.457C198.145 182.578 217.408 140.366 228.896 109.887C229.113 109.343 229.317 108.826 229.508 108.269C229.576 108.092 229.63 107.929 229.698 107.752C216.606 106.95 205.554 104.897 194.868 102.831L194.855 102.845Z" fill="#0072BC"/>
<path d="M83.118 26.877C87.1284 26.877 89.1676 30.0581 89.1676 33.484C89.1676 36.9098 87.142 40.091 83.118 40.091C79.094 40.091 77.0684 36.9098 77.0684 33.484C77.0684 30.0581 79.1076 26.877 83.118 26.877ZM83.118 38.6772C86.1904 38.6772 87.4819 36.0262 87.4819 33.484C87.4819 30.9418 86.1904 28.2908 83.118 28.2908C80.0456 28.2908 78.7541 30.9418 78.7541 33.484C78.7541 36.0262 80.0456 38.6772 83.118 38.6772Z" fill="white"/>
<path d="M96.8078 33.5925C96.5767 32.437 95.7882 31.7708 94.5511 31.7708C92.3759 31.7708 91.7098 33.4838 91.7098 35.3462C91.7098 37.032 92.4711 38.6905 94.3744 38.6905C95.8154 38.6905 96.6854 37.8477 96.8894 36.461H98.4256C98.0857 38.6905 96.6991 40.0092 94.4015 40.0092C91.6146 40.0092 90.1328 38.0652 90.1328 35.3462C90.1328 32.6273 91.5467 30.4521 94.4423 30.4521C96.5087 30.4521 98.1673 31.431 98.3848 33.5925H96.835H96.8078Z" fill="white"/>
<path d="M101.824 30.6563H103.646V31.9886H101.824V37.6576C101.824 38.3509 102.015 38.4732 102.953 38.4732H103.646V39.8055H102.491C100.941 39.8055 100.315 39.4928 100.315 37.8071V31.9886H98.7656V30.6563H100.315V27.9102H101.824V30.6563Z" fill="white"/>
<path d="M108.893 30.4385C111.788 30.4385 113.325 32.5457 113.325 35.2238C113.325 37.902 111.788 39.9956 108.893 39.9956C105.997 39.9956 104.461 37.8884 104.461 35.2238C104.461 32.5593 105.997 30.4385 108.893 30.4385ZM108.893 38.6769C110.47 38.6769 111.734 37.4397 111.734 35.2238C111.734 33.0079 110.456 31.7572 108.893 31.7572C107.329 31.7572 106.052 32.9943 106.052 35.2238C106.052 37.4533 107.329 38.6769 108.893 38.6769Z" fill="white"/>
<path d="M114.793 30.656H116.302V31.8931H116.343C116.832 30.8871 118.001 30.4385 119.252 30.4385C122.066 30.4385 123.453 32.668 123.453 35.251C123.453 37.834 122.08 40.0091 119.279 40.0091C118.341 40.0091 116.995 39.6557 116.329 38.5817H116.288V43.2991H114.779V30.656H114.793ZM119.034 31.7708C117.022 31.7708 116.248 33.4973 116.248 35.2238C116.248 37.0319 117.063 38.6905 119.13 38.6905C121.196 38.6905 121.862 36.9367 121.862 35.1558C121.862 33.3749 120.978 31.7844 119.034 31.7844V31.7708Z" fill="white"/>
<path d="M132.426 39.7917H131.012V38.3371H130.971C130.332 39.4655 129.313 39.9957 128.008 39.9957C125.601 39.9957 124.867 38.6226 124.867 36.6514V30.6425H126.376V36.8281C126.376 37.9429 127.083 38.6634 128.239 38.6634C130.06 38.6634 130.944 37.4399 130.944 35.7949V30.6289H132.453V39.7645L132.426 39.7917Z" fill="white"/>
<path d="M135.253 36.9096C135.308 38.2554 136.477 38.6769 137.714 38.6769C138.652 38.6769 139.916 38.4594 139.916 37.3174C139.916 36.1754 138.434 35.9579 136.925 35.6181C135.443 35.2782 133.934 34.7888 133.934 33.0351C133.934 31.1998 135.756 30.4385 137.347 30.4385C139.359 30.4385 140.963 31.0774 141.099 33.307H139.59C139.481 32.1378 138.462 31.7708 137.469 31.7708C136.572 31.7708 135.525 32.0155 135.525 32.9399C135.525 34.0139 137.116 34.1906 138.516 34.5305C140.025 34.8703 141.507 35.3598 141.507 37.1271C141.507 39.3022 139.468 40.0091 137.619 40.0091C135.566 40.0091 133.839 39.1799 133.744 36.9096H135.253Z" fill="white"/>
<path d="M67.3067 28.6433C66.8989 28.8608 66.1512 29.2551 65.2947 29.459C64.8325 29.2143 64.3159 28.956 63.6769 28.7929L62.8341 29.6765C63.7449 29.9484 64.2071 30.1251 64.683 30.3291H61.8689V37.9421H62.9564V35.5222H65.0092V37.9421H66.0968V35.5222H68.1496V37.9421H69.278V30.3019H66.627C66.5046 30.2067 66.3415 30.1387 66.3551 30.1523C67.3203 29.7989 68.3399 29.3095 69.3595 28.5074V27.5693H69.3459H61.4746V28.521H67.5107L67.2931 28.6297L67.3067 28.6433ZM65.0092 34.489H62.9564V33.4422H65.0092V34.489ZM64.9956 32.3819H62.9564V31.3623H65.0092V32.3819H64.9956ZM68.1224 34.489H66.1104V33.4422H68.1224V34.489ZM68.136 31.3487V32.3955H66.0968V31.3487H68.136Z" fill="white"/>
<path d="M27.1484 39.3564L28.2223 39.9818C30.8189 35.4955 31.1996 31.7434 31.1996 29.8945H29.9489C29.9489 31.6075 29.5818 35.1285 27.1348 39.3564H27.1484Z" fill="white"/>
<path d="M37.3166 27.3115H30.4648V28.5622H36.0795C36.2426 31.0229 37.2894 36.1073 39.5325 39.9818L40.6065 39.3564C38.2818 35.3324 37.303 29.9217 37.303 27.9369V27.3115H37.3166Z" fill="white"/>
<path d="M43.2847 27.5103L42.5156 28.2793L44.4478 30.2115L45.2168 29.4425L43.2847 27.5103Z" fill="white"/>
<path d="M50.8991 38.6356V37.1266H54.9096V36.039H50.8991V35.3185H53.7268V34.2309H50.8991V33.4696H54.1619V32.3821H52.0139L52.884 31.0362H54.7192V29.9486H50.9127V29.2145H54.1619V28.1269H50.9127V26.917H49.8252V28.1269H46.576V29.2145H49.8252V29.9486H45.9778V31.0362H47.6364L48.5065 32.3821H46.3449V33.4696H49.8116V34.2309H46.9839V35.3185H49.8116V36.039H45.8555V37.1266H49.8116V38.6492H49.4173C47.9491 38.6628 46.644 38.4725 45.3661 37.6568V32.3821H42.0762V33.456H44.3057V37.2082L42.2937 39.2338L43.055 39.9815L44.6048 38.4317L44.5776 38.4861C46.2633 39.628 48.4113 39.7504 50.7224 39.7504H54.8144L55.3854 38.4997L53.251 38.622L50.8991 38.6492V38.6356ZM48.9279 31.0362H51.5925L50.7224 32.3821H49.8116L48.9415 31.0362H48.9279Z" fill="white"/>
<path d="M60.51 29.446L58.566 27.502L57.8047 28.2769L59.7351 30.2073L60.51 29.446Z" fill="white"/>
<path d="M68.5441 38.6082L64.724 38.649C63.2557 38.649 61.9506 38.4587 60.6727 37.6566V32.3818H57.3828V33.4558H59.5988V37.208L57.5867 39.2336L58.348 39.9813L59.8978 38.4315L59.8706 38.4859C61.5564 39.6278 63.6908 39.7502 66.0155 39.7502H70.1075L70.6784 38.4995L68.5441 38.6218V38.6082Z" fill="white"/>
</g>
<rect x="240.5" y="186.5" width="93" height="27" rx="3.5" fill="#FCE6EA" fill-opacity="0.29"/>
<rect x="240.5" y="186.5" width="93" height="27" rx="3.5" stroke="#FF0000"/>
<path d="M245.232 206V204.936H247.528V197.278H245.694V196.466C246.151 196.382 246.548 196.279 246.884 196.158C247.229 196.037 247.542 195.897 247.822 195.738H248.802V204.936H250.86V206H245.232ZM252.662 206V205.244C253.735 204.301 254.617 203.443 255.308 202.668C256.008 201.893 256.526 201.175 256.862 200.512C257.198 199.84 257.366 199.21 257.366 198.622C257.366 198.23 257.296 197.88 257.156 197.572C257.025 197.264 256.82 197.026 256.54 196.858C256.26 196.681 255.905 196.592 255.476 196.592C255.056 196.592 254.664 196.704 254.3 196.928C253.945 197.152 253.628 197.437 253.348 197.782L252.606 197.054C253.016 196.597 253.46 196.233 253.936 195.962C254.412 195.691 254.976 195.556 255.63 195.556C256.246 195.556 256.773 195.682 257.212 195.934C257.66 196.177 258.005 196.527 258.248 196.984C258.5 197.432 258.626 197.959 258.626 198.566C258.626 199.247 258.453 199.938 258.108 200.638C257.772 201.338 257.3 202.052 256.694 202.78C256.096 203.499 255.396 204.236 254.594 204.992C254.864 204.973 255.144 204.955 255.434 204.936C255.732 204.908 256.012 204.894 256.274 204.894H259.116V206H252.662ZM263.773 206.182C263.241 206.182 262.77 206.117 262.359 205.986C261.958 205.855 261.603 205.683 261.295 205.468C260.987 205.253 260.721 205.02 260.497 204.768L261.155 203.942C261.454 204.25 261.804 204.525 262.205 204.768C262.616 205.001 263.111 205.118 263.689 205.118C264.1 205.118 264.459 205.043 264.767 204.894C265.085 204.735 265.332 204.516 265.509 204.236C265.687 203.947 265.775 203.606 265.775 203.214C265.775 202.803 265.673 202.444 265.467 202.136C265.271 201.828 264.94 201.59 264.473 201.422C264.007 201.245 263.377 201.156 262.583 201.156V200.176C263.293 200.176 263.853 200.092 264.263 199.924C264.674 199.747 264.968 199.509 265.145 199.21C265.332 198.911 265.425 198.58 265.425 198.216C265.425 197.721 265.271 197.329 264.963 197.04C264.655 196.741 264.231 196.592 263.689 196.592C263.279 196.592 262.891 196.685 262.527 196.872C262.173 197.059 261.851 197.297 261.561 197.586L260.875 196.774C261.267 196.419 261.692 196.13 262.149 195.906C262.616 195.673 263.143 195.556 263.731 195.556C264.31 195.556 264.823 195.659 265.271 195.864C265.729 196.06 266.083 196.349 266.335 196.732C266.597 197.115 266.727 197.577 266.727 198.118C266.727 198.743 266.559 199.261 266.223 199.672C265.887 200.083 265.449 200.386 264.907 200.582V200.652C265.309 200.745 265.673 200.909 265.999 201.142C266.326 201.375 266.587 201.669 266.783 202.024C266.979 202.379 267.077 202.789 267.077 203.256C267.077 203.863 266.928 204.385 266.629 204.824C266.331 205.263 265.934 205.599 265.439 205.832C264.945 206.065 264.389 206.182 263.773 206.182ZM272.897 206V199C272.897 198.748 272.906 198.44 272.925 198.076C272.944 197.712 272.958 197.399 272.967 197.138H272.911C272.78 197.381 272.645 197.633 272.505 197.894C272.374 198.146 272.234 198.398 272.085 198.65L269.747 202.15H275.473V203.172H268.417V202.332L272.687 195.738H274.101V206H272.897ZM279.85 206.182C279.318 206.182 278.847 206.117 278.436 205.986C278.035 205.855 277.68 205.687 277.372 205.482C277.074 205.277 276.803 205.057 276.56 204.824L277.204 203.984C277.4 204.18 277.615 204.367 277.848 204.544C278.091 204.712 278.366 204.852 278.674 204.964C278.982 205.067 279.332 205.118 279.724 205.118C280.126 205.118 280.49 205.02 280.816 204.824C281.152 204.628 281.418 204.348 281.614 203.984C281.81 203.62 281.908 203.191 281.908 202.696C281.908 201.968 281.712 201.399 281.32 200.988C280.938 200.568 280.424 200.358 279.78 200.358C279.444 200.358 279.15 200.409 278.898 200.512C278.646 200.615 278.371 200.764 278.072 200.96L277.386 200.526L277.722 195.738H282.706V196.83H278.842L278.576 199.798C278.8 199.667 279.034 199.569 279.276 199.504C279.528 199.429 279.808 199.392 280.116 199.392C280.686 199.392 281.204 199.509 281.67 199.742C282.137 199.966 282.51 200.321 282.79 200.806C283.07 201.291 283.21 201.912 283.21 202.668C283.21 203.415 283.047 204.049 282.72 204.572C282.403 205.095 281.988 205.496 281.474 205.776C280.961 206.047 280.42 206.182 279.85 206.182ZM288.442 206.182C287.957 206.182 287.504 206.079 287.084 205.874C286.664 205.659 286.3 205.342 285.992 204.922C285.684 204.493 285.441 203.961 285.264 203.326C285.096 202.691 285.012 201.949 285.012 201.1C285.012 200.101 285.115 199.247 285.32 198.538C285.525 197.829 285.805 197.255 286.16 196.816C286.515 196.377 286.921 196.06 287.378 195.864C287.835 195.659 288.311 195.556 288.806 195.556C289.338 195.556 289.8 195.654 290.192 195.85C290.584 196.046 290.925 196.298 291.214 196.606L290.486 197.39C290.29 197.147 290.047 196.956 289.758 196.816C289.469 196.676 289.17 196.606 288.862 196.606C288.377 196.606 287.933 196.751 287.532 197.04C287.131 197.32 286.809 197.787 286.566 198.44C286.333 199.093 286.216 199.98 286.216 201.1C286.216 201.977 286.3 202.719 286.468 203.326C286.645 203.933 286.897 204.395 287.224 204.712C287.56 205.02 287.966 205.174 288.442 205.174C288.778 205.174 289.072 205.076 289.324 204.88C289.585 204.684 289.791 204.413 289.94 204.068C290.099 203.713 290.178 203.307 290.178 202.85C290.178 202.383 290.108 201.982 289.968 201.646C289.837 201.301 289.637 201.039 289.366 200.862C289.095 200.675 288.75 200.582 288.33 200.582C288.003 200.582 287.649 200.689 287.266 200.904C286.883 201.109 286.519 201.469 286.174 201.982L286.132 200.974C286.347 200.694 286.585 200.456 286.846 200.26C287.107 200.055 287.383 199.901 287.672 199.798C287.971 199.686 288.26 199.63 288.54 199.63C289.119 199.63 289.618 199.751 290.038 199.994C290.467 200.227 290.799 200.582 291.032 201.058C291.275 201.534 291.396 202.131 291.396 202.85C291.396 203.513 291.261 204.096 290.99 204.6C290.719 205.095 290.36 205.482 289.912 205.762C289.473 206.042 288.983 206.182 288.442 206.182ZM295.046 206C295.092 205.029 295.172 204.138 295.284 203.326C295.405 202.505 295.578 201.735 295.802 201.016C296.026 200.288 296.31 199.583 296.656 198.902C297.01 198.221 297.44 197.53 297.944 196.83H292.96V195.738H299.386V196.508C298.788 197.283 298.298 198.025 297.916 198.734C297.542 199.443 297.248 200.167 297.034 200.904C296.828 201.641 296.674 202.425 296.572 203.256C296.478 204.077 296.413 204.992 296.376 206H295.046ZM304.239 206.182C303.605 206.182 303.04 206.065 302.545 205.832C302.051 205.599 301.663 205.277 301.383 204.866C301.103 204.455 300.963 203.984 300.963 203.452C300.963 202.995 301.052 202.584 301.229 202.22C301.416 201.847 301.654 201.529 301.943 201.268C302.233 200.997 302.531 200.778 302.839 200.61V200.554C302.466 200.293 302.139 199.971 301.859 199.588C301.589 199.196 301.453 198.729 301.453 198.188C301.453 197.665 301.575 197.213 301.817 196.83C302.069 196.438 302.405 196.135 302.825 195.92C303.255 195.696 303.735 195.584 304.267 195.584C304.855 195.584 305.359 195.701 305.779 195.934C306.199 196.167 306.521 196.485 306.745 196.886C306.969 197.287 307.081 197.754 307.081 198.286C307.081 198.641 307.007 198.977 306.857 199.294C306.717 199.611 306.545 199.896 306.339 200.148C306.134 200.391 305.929 200.596 305.723 200.764V200.834C306.022 201.002 306.302 201.207 306.563 201.45C306.825 201.683 307.035 201.973 307.193 202.318C307.361 202.654 307.445 203.06 307.445 203.536C307.445 204.021 307.31 204.469 307.039 204.88C306.778 205.281 306.405 205.599 305.919 205.832C305.443 206.065 304.883 206.182 304.239 206.182ZM304.939 200.428C305.285 200.12 305.546 199.793 305.723 199.448C305.901 199.093 305.989 198.729 305.989 198.356C305.989 198.011 305.919 197.703 305.779 197.432C305.649 197.161 305.453 196.947 305.191 196.788C304.93 196.62 304.617 196.536 304.253 196.536C303.777 196.536 303.385 196.685 303.077 196.984C302.769 197.283 302.615 197.684 302.615 198.188C302.615 198.589 302.723 198.93 302.937 199.21C303.161 199.481 303.451 199.714 303.805 199.91C304.16 200.097 304.538 200.269 304.939 200.428ZM304.253 205.23C304.655 205.23 305 205.155 305.289 205.006C305.588 204.857 305.817 204.651 305.975 204.39C306.143 204.129 306.227 203.83 306.227 203.494C306.227 203.149 306.153 202.855 306.003 202.612C305.854 202.36 305.653 202.141 305.401 201.954C305.159 201.767 304.874 201.599 304.547 201.45C304.221 201.301 303.875 201.156 303.511 201.016C303.101 201.277 302.76 201.609 302.489 202.01C302.228 202.402 302.097 202.845 302.097 203.34C302.097 203.695 302.191 204.017 302.377 204.306C302.564 204.595 302.821 204.824 303.147 204.992C303.483 205.151 303.852 205.23 304.253 205.23ZM315.122 208.744C314.478 207.699 313.974 206.602 313.61 205.454C313.246 204.297 313.064 203.027 313.064 201.646C313.064 200.274 313.246 199.009 313.61 197.852C313.974 196.695 314.478 195.593 315.122 194.548L315.906 194.912C315.309 195.911 314.861 196.989 314.562 198.146C314.273 199.294 314.128 200.461 314.128 201.646C314.128 202.841 314.273 204.017 314.562 205.174C314.861 206.322 315.309 207.395 315.906 208.394L315.122 208.744ZM320.678 206.182C320.034 206.182 319.47 205.986 318.984 205.594C318.508 205.202 318.14 204.609 317.878 203.816C317.617 203.023 317.486 202.029 317.486 200.834C317.486 199.639 317.617 198.655 317.878 197.88C318.14 197.096 318.508 196.513 318.984 196.13C319.47 195.747 320.034 195.556 320.678 195.556C321.332 195.556 321.896 195.752 322.372 196.144C322.848 196.527 323.217 197.105 323.478 197.88C323.74 198.655 323.87 199.639 323.87 200.834C323.87 202.029 323.74 203.023 323.478 203.816C323.217 204.609 322.848 205.202 322.372 205.594C321.896 205.986 321.332 206.182 320.678 206.182ZM320.678 205.146C321.07 205.146 321.411 204.997 321.7 204.698C321.999 204.399 322.228 203.933 322.386 203.298C322.554 202.654 322.638 201.833 322.638 200.834C322.638 199.835 322.554 199.023 322.386 198.398C322.228 197.763 321.999 197.301 321.7 197.012C321.411 196.713 321.07 196.564 320.678 196.564C320.296 196.564 319.955 196.713 319.656 197.012C319.358 197.301 319.124 197.763 318.956 198.398C318.798 199.023 318.718 199.835 318.718 200.834C318.718 201.833 318.798 202.654 318.956 203.298C319.124 203.933 319.358 204.399 319.656 204.698C319.955 204.997 320.296 205.146 320.678 205.146ZM326.218 208.744L325.42 208.394C326.027 207.395 326.479 206.322 326.778 205.174C327.077 204.017 327.226 202.841 327.226 201.646C327.226 200.461 327.077 199.294 326.778 198.146C326.479 196.989 326.027 195.911 325.42 194.912L326.218 194.548C326.871 195.593 327.375 196.695 327.73 197.852C328.094 199.009 328.276 200.274 328.276 201.646C328.276 203.027 328.094 204.297 327.73 205.454C327.375 206.602 326.871 207.699 326.218 208.744Z" fill="white"/>
</svg>
